<svg xmlns="http://www.w3.org/2000/svg" width="24" height="24" fill="none" viewBox="0 0 24 24"><g clip-path="url(#a)"><path fill="#213147" d="M0 12a12 12 0 1 0 24 0 12 12 0 0 0-24 0Z"/><path fill="#12AAFF" d="M15.11 9.06a.16.16 0 0 1 .31 0l3.38 9.25-1.93 1.11-2.73-7.48a.32.32 0 0 1 0-.23l.97-2.65Zm-2.59 7.12.97-2.66a.16.16 0 0 1 .3 0l2.32 6.34-1.93 1.12-1.66-4.57a.32.32 0 0 1 0-.23Z"/><path fill="#9DCCED" d="M12.14 3.28a.28.28 0 0 0-.14-.04c-.04 0-.1.01-.13.04L4.52 7.52a.27.27 0 0 0-.14.24v8.48c0 .1.05.2.14.24l3.05 1.77-.43 1.18-3.24-1.88a1.52 1.52 0 0 1-.76-1.31V7.76c0-.54.29-1.04.76-1.31l7.34-4.25a1.51 1.51 0 0 1 1.52 0l7.34 4.24c.47.27.76.78.76 1.32v8.48a1.5 1.5 0 0 1-.76 1.31l-7.34 4.25a1.51 1.51 0 0 1-1.52 0l-3.33-1.93.95-.88 3 1.73a.28.28 0 0 0 .28 0l7.35-4.24a.27.27 0 0 0 .14-.24V7.76c0-.1-.06-.2-.14-.24l-7.35-4.24Z"/><path fill="#fff" d="M9.52 7.15h1.86c.12 0 .2.12.16.22l-4.4 12.06-1.92-1.11L9.2 7.37a.33.33 0 0 1 .31-.22Zm3.26 0h1.86c.12 0 .2.12.16.23l-4.96 13.6-1.93-1.11 4.56-12.5a.33.33 0 0 1 .31-.22Z"/></g><defs><clipPath id="a"><path fill="#fff" d="M0 0h24v24H0z"/></clipPath></defs></svg>