<svg xmlns="http://www.w3.org/2000/svg" width="24" height="24" fill="none" viewBox="0 0 24 24"><g clip-path="url(#a)"><path fill="#2A5ADA" fill-rule="evenodd" d="M12 24a12 12 0 1 1 0-24 12 12 0 0 1 0 24Z" clip-rule="evenodd"/><path fill="#fff" d="m12 3-1.59.95-4.32 2.6-1.59.95v9l1.59.95 4.36 2.6 1.59.95 1.59-.95 4.28-2.6 1.59-.95v-9l-1.59-.95-4.32-2.6L12 3ZM7.67 14.6V9.4L12 6.8l4.33 2.6v5.2L12 17.2l-4.33-2.6Z"/></g><defs><clipPath id="a"><path fill="#fff" d="M0 0h24v24H0z"/></clipPath></defs></svg>