<svg xmlns="http://www.w3.org/2000/svg" width="24" height="24" fill="none" viewBox="0 0 24 24">
  <g clip-path="url(#a)">
    <path fill="url(#b)" fill-rule="evenodd" d="M12 24C5.4 24 0 18.6 0 11.94.06 5.34 5.4-.06 12.06 0 18.66.06 24 5.4 24 12.12 23.94 18.66 18.6 24 12 24Z" clip-rule="evenodd"/>
    <path fill="#fff" d="M16.549 4c-.914 0-1.791.362-2.438 1.01a3.464 3.464 0 0 0-1.015 2.44v3.826c-.355.024-.719.04-1.096.04-.377 0-.739.014-1.096.036V7.45a3.466 3.466 0 0 0-1.03-2.412 3.448 3.448 0 0 0-4.844 0A3.466 3.466 0 0 0 4 7.45v9.144a3.467 3.467 0 0 0 1.03 2.412 3.448 3.448 0 0 0 4.844 0 3.466 3.466 0 0 0 1.03-2.412v-3.826c.356-.024.72-.04 1.096-.04.377 0 .739-.014 1.096-.036v3.902a3.467 3.467 0 0 0 1.03 2.412 3.448 3.448 0 0 0 4.844 0A3.467 3.467 0 0 0 20 16.594V7.45a3.464 3.464 0 0 0-1.014-2.44A3.445 3.445 0 0 0 16.55 4ZM7.452 5.414A2.041 2.041 0 0 1 9.489 7.45v4.051c-1.01.147-1.996.427-2.933.832a5.328 5.328 0 0 0-1.138.681V7.45c.001-.54.216-1.057.597-1.44a2.034 2.034 0 0 1 1.437-.596Zm2.037 11.18c0 .541-.215 1.061-.597 1.444a2.035 2.035 0 0 1-3.478-1.444v-.918c0-.81.64-1.577 1.713-2.055a10.04 10.04 0 0 1 2.362-.693v3.666Zm7.06 2.036c-.54 0-1.057-.214-1.439-.596a2.045 2.045 0 0 1-.599-1.44v-4.052a11.584 11.584 0 0 0 2.934-.831 5.33 5.33 0 0 0 1.137-.681v5.564a2.045 2.045 0 0 1-.597 1.44 2.034 2.034 0 0 1-1.436.596Zm.324-8.212c-.756.327-1.55.56-2.362.692V7.45c0-.541.215-1.061.597-1.444a2.035 2.035 0 0 1 3.478 1.444v.918c0 .806-.64 1.574-1.713 2.05Z"/>
  </g>
  <defs>
    <linearGradient id="b" x1="1.52" x2="22.401" y1="22.211" y2="1.331" gradientUnits="userSpaceOnUse">
      <stop stop-color="#00AEE9"/>
      <stop offset="1" stop-color="#69FABD"/>
    </linearGradient>
    <clipPath id="a">
      <path fill="#fff" d="M0 0h24v24H0z"/>
    </clipPath>
  </defs>
</svg>
