<svg xmlns="http://www.w3.org/2000/svg" width="24" height="24" fill="none" viewBox="0 0 24 24"><g clip-path="url(#a)"><path fill="#fff" d="M12 24a12 12 0 1 0 0-24 12 12 0 0 0 0 24Z"/><path fill="url(#b)" d="M4.39 7.04c-.65.58-1.77.43-2.25.3l.5.37h-.4c.1.11.35.36.56.5.2.13 1.22.11 1.71.1a4.42 4.42 0 0 0-.71 1.21c0 .2.1.55.14.7.03.3.06 1 0 1.49a5.05 5.05 0 0 1-1.03 1.72c.47-.3.79-.54.89-.62-.09.12-.29.52-.4 1.1-.1.58-.68 1.2-.95 1.43l.46-.08-.2.32.2.15c.08-.01.27.03.36.3.11.32 1.74 1.73 2.46 2.36.72.64 3.06 1.84 4.34 2.18 1.03.27 1.65.84 1.83 1.09.04-.14.12-.4.17-.34.05.07.13.33.16.46l.16-.21h.14c.23-.5 1.2-.83 1.66-.93.43-.18 1.68-.73 3.2-1.53 1.51-.81 2.99-2.4 3.54-3.08l.28-.44.64-.28c-.32-.42-.94-1.35-.92-1.77.01-.4-.12-1.3-.18-1.71l.7.29c0-.12-.5-.7-.75-.97l.34-.09-.54-.15-.38-.65.92.28-.3-.38.47-.29-.6-.1.54-.54-.97.2.32-.57c.13-.14.4-.46.44-.55.04-.1-.11-.13-.2-.13l.15-.3h-.7l.31-.32h-.63V6.53l-.12-.4.43-.62-.5.2c.15-1.24-1.23-1.06-1.94-.82 0-1.36-1.53-1.78-2.29-1.83l.14.1c.45.15.83.44 1.1.8.27.38.42.82.41 1.27l-.4-.4a2.2 2.2 0 0 0-2.37-1.67 10.3 10.3 0 0 1-3.57-.39c.07.22.86.53 1.25.65-1.94.36-2.63-.68-2.73-1.24-.4.33-.5 1.38-.5 1.87-.48.06-.84-.44-.96-.7-.37.25-.52.88-.55 1.16-.3-.11-.42-.77-.45-1.08-.24.14-.44 1-.52 1.4C4.77 4.11 4.4 6 4.4 7.03Z"/><path fill="#F0F3FA" d="m16.44 7.18.99-1.5c.36-.12.72-.17 1.05-.09.99.25.57 2.4.23 3.44a10.34 10.34 0 0 0-2.27-1.85Zm-7.55-.35c-1.15.2-2.69 1.55-3.32 2.2C5.23 8 4.8 5.84 5.82 5.6s2.48.72 3.07 1.24Zm11.92 8.11c.06.2.17.58.2.95l-.08.13a13.2 13.2 0 0 1-3.55 3.09c-1.04.56-2.1 1.07-3.2 1.53-.45.1-1.43.43-1.65.93h-.14l-.16.2c-.04-.15-.09-.3-.16-.44-.05-.07-.13.19-.17.33a3.54 3.54 0 0 0-1.83-1.1 15.41 15.41 0 0 1-4.34-2.16l-.13-.11c-.63-.56-1.75-1.54-2.17-2.03-.07-.64-.02-1.46.51-1.7.69-.33 1.52-.1 1.84.07.71.47 2.31 1.38 3.04 1.2a6.7 6.7 0 0 0 1.84-.89 3.61 3.61 0 0 1 2.96 0l1.67.88a4.4 4.4 0 0 0 3.2-1.2c.18-.15.7-.44 1.33-.3.62.13.91.48.99.62Zm-6.9-3.49c-.6.38-.45.91-.3 1.13.69.49 1.44-.18 1.84-.54l.18-.15c.39-.28.6-.32.83-.35l.1-.01c-.63-.19-2.04-.46-2.65-.08ZM9.97 12.8c.16-.21.32-.65-.3-1.03-.6-.38-2.13.05-2.72.52l.25.02c.27.01.63.02.96.26l.06.04c.31.23.98.73 1.76.2Z"/><path fill="#72572F" d="M5.9 5.64c.04 2.2 1.67 1.86 2.5 1.4.19.07.45.03.58.01h.05c.24.14.42.17.48.16-.07-.05-.1-.19-.11-.25a.36.36 0 0 0 .31 0c-.14-.04-.19-.27-.2-.38.35.37 1.24.39 1.64.35-.21-.02-.38-.24-.44-.35.82.29 2.34.12 3 0a1.17 1.17 0 0 1-.66-.36 5.4 5.4 0 0 0 1.79 0l.73.64.11-.41.3.41.24-.28.12.65.15.08c.13-.25.48-.87.9-1.4.22-.28.35-.68.42-1.04l-.07.02c0-1.36-1.53-1.78-2.29-1.83l.14.1c.45.15.83.44 1.1.8.28.38.42.82.41 1.28l-.4-.4a2.2 2.2 0 0 0-2.37-1.68 10.1 10.1 0 0 1-3.58-.39c.08.22.87.53 1.26.66-1.95.35-2.63-.69-2.73-1.25-.39.32-.5 1.39-.5 1.87-.48.06-.84-.44-.96-.7-.37.25-.52.88-.55 1.15-.3-.1-.42-.76-.45-1.08-.24.15-.44 1-.51 1.42l-.05-.02c.06.35.2.7.4 1 .2.3.48.56.8.76-.76.02-1.35-.61-1.56-.94Zm13.97 1.89c-.36.02-.75.01-1.09-.05-.7-.1-1.31.1-1.54.23.11.48.82 1.11 1.15 1.37-.22.02-.68.07-.62.17.06.1.32.2.43.25-.15.05-.21.12-.22.15.2.3.95.73 1.3.9-.06.17-.44.12-.62.08.13.46.8.7 1.12.75-.03.44 0 1.87 0 2.54a5.4 5.4 0 0 0 .64-1.51c.13.65.36 1.13.57 1.44a.88.88 0 0 1-.06-.3c.01-.4-.1-1.23-.17-1.66v-.06l.7.29c0-.12-.5-.7-.76-.97l.34-.09-.54-.15-.38-.65.92.28-.29-.38.46-.29-.6-.1.54-.54-.97.2.32-.57.03-.03a4 4 0 0 0 .41-.52c.05-.1-.11-.13-.2-.13l.15-.3h-.7l.31-.32h-.63v-.03ZM2.55 7.42c.54.08 1.3.07 1.82-.36l.02-.02c0-.63.14-1.57.6-2.06-.7 2.3-.25 4.35.08 5.1-.16.24-.28.52-.37.82a7.22 7.22 0 0 0-.24 1.47 20 20 0 0 1-.1 1.62c-.06.05-.2.12-.25-.07a22 22 0 0 1-.24-1.16l-.11.1.04-.05c-.11.09-.42.33-.89.62.17-.2.43-.53.65-.88.2-.3.35-.62.38-.84a9.2 9.2 0 0 0 0-1.5 2.67 2.67 0 0 1-.14-.69c0-.2.47-.9.71-1.22-.49.02-1.51.04-1.71-.1-.2-.14-.4-.3-.57-.49h.41l-.11-.08-.38-.3c.1.04.24.07.4.09Z"/><path fill="#E6E6E6" d="M12.74 19.32c0 .13-.23.25-.5.25s-.5-.11-.5-.25.23-.25.5-.25c.28 0 .5.1.5.25Z"/><path fill="#000" d="m15.68 6.45.03.05.12-.26c.03-.06 0-.13-.07-.16-.06-.03-.15 0-.18.07l-.14.29a3.32 3.32 0 0 0-.66-.47 5.68 5.68 0 0 0-1.13-.45.14.14 0 0 0-.18.09.12.12 0 0 0 .01.1l.04.03.05.02c.28.08.56.18.82.31a3.62 3.62 0 0 1-2.1-.58 4.8 4.8 0 0 1-1.43-1.37.14.14 0 0 0-.1-.02.14.14 0 0 0-.1.05.12.12 0 0 0-.02.09l.02.05a5.1 5.1 0 0 0 1.48 1.41c.45.28.94.47 1.47.57.64.05 1.07-.01 1.23-.05l.73.64.11-.41Zm-5.75 7.69c-.06.39-.74.63-1.54.53-.8-.1-1.41-.36-1.34-.88.05-.38.6-.64 1.54-.53.8.1 1.51.34 1.34.88Zm6.07.57c-.8.1-1.5-.14-1.55-.53-.16-.54.54-.78 1.34-.88.95-.11 1.49.15 1.55.54.07.52-.55.78-1.35.87Z"/><path fill="#000" fill-rule="evenodd" d="M11.8 17.42c-.52-.46-1.3-1.47-.21-1.73h1.27c.44.11 1 .6-.3 1.73.32.22 1.33.4 1.8.46.14 0 .4.06.37.27-.04.22-.32.22-.46.2l-.72-.11c-.26.07-.9.21-1.38.21a5.23 5.23 0 0 1-1.32-.21l-.8.1c-.08-.02-.24-.11-.24-.26 0-.17.16-.2.24-.2a6.77 6.77 0 0 0 1.76-.46h-.01Zm-.43.73c.3-.07.6-.17.88-.32.2.12.68.34.87.32-.8.16-1.5.06-1.75 0Z" clip-rule="evenodd"/><path fill="#000" fill-rule="evenodd" d="M9.38 2.17 9.35 2l-.14.11a1 1 0 0 0-.27.4 4.67 4.67 0 0 0-.26 1.45.71.71 0 0 1-.44-.2 1.48 1.48 0 0 1-.32-.44l-.05-.1-.1.06c-.22.14-.36.38-.44.6-.07.16-.1.32-.14.45-.06-.1-.12-.2-.15-.32a2.4 2.4 0 0 1-.11-.6l-.02-.16-.14.1a.71.71 0 0 0-.22.26 5.69 5.69 0 0 0-.32 1.09 1.27 1.27 0 0 0-.91-.06c-.28.1-.5.32-.64.6-.3.51-.39 1.24-.4 1.75-.3.24-.69.37-1.09.37a3.1 3.1 0 0 1-1.01-.12l-.1.17.27.2H2l.15.17c.18.19.38.36.6.5.04.03.09.05.14.06l.18.04c.41.03.83.04 1.24.03l-.33.5-.2.34-.05.14a.41.41 0 0 0-.03.13c.02.24.06.48.14.71.02.3.06 1 0 1.46-.02.11-.06.25-.14.4-.25.45-.54.88-.87 1.28l.14.14.56-.37c-.08.2-.17.45-.23.75a2 2 0 0 1-.4.81c-.18.25-.4.46-.52.58l-.27.22.6-.1-.13.2.3.23h.05c.02 0 .16 0 .24.22.02.06.07.13.13.2.28.32.58.62.9.92l1 .9.33.29.13.1c.61.48 1.28.88 1.99 1.22.76.4 1.56.73 2.4.98.69.17 1.3.54 1.77 1.05l.13.18.06-.2.04-.16.08.27.05.2.27-.34h.15l.03-.05c.1-.22.36-.41.69-.57.32-.15.67-.26.9-.31a36.6 36.6 0 0 0 3.22-1.54 13.33 13.33 0 0 0 3.57-3.11l.27-.42.72-.31-.07-.1a9.69 9.69 0 0 1-.82-1.35 1.07 1.07 0 0 1-.08-.35c.02-.37-.08-1.12-.15-1.57l.51.22a.1.1 0 0 0 .05.02c.06 0 .11-.04.11-.1 0-.03 0-.06-.02-.09v-.01l-.07-.11a9.79 9.79 0 0 0-.58-.7l.52-.14-.83-.24-.23-.4.96.3-.4-.55.57-.35-.66-.13.64-.62-1.07.21.2-.38c.17-.17.32-.37.45-.57a.16.16 0 0 0 0-.14.2.2 0 0 0-.1-.08l-.03-.02.15-.32h-.63l.32-.32h-.76v-.94l-.12-.37.6-.85-.66.26a.93.93 0 0 0-.17-.6.92.92 0 0 0-.57-.31c-.4-.08-.87 0-1.22.1a1.69 1.69 0 0 0-.9-1.34c-.5-.3-1.09-.42-1.48-.44l-.36-.02.44.3h.01c.4.13.73.36.98.67a2 2 0 0 1 .46 1.06l-.2-.2a2.29 2.29 0 0 0-2.48-1.73 9.98 9.98 0 0 1-3.52-.37l-.19-.06.06.18c.02.05.04.09.08.12.15.12.31.22.48.3l.4.16a2.45 2.45 0 0 1-1.6-.31c-.4-.27-.6-.64-.64-.9Zm11.71 9.59.13.16-.6-.25.03.17v.05l.13.9-.25-.94-.27.05c0 .1 0 .24-.04.41-.07.3-.17.6-.29.87l.14-2.19c.16.06.32.1.46.13l.09.1c.13.13.32.34.47.54Zm-.77-.96-.26-.45-.03-.01a58.66 58.66 0 0 0-1.74-.63c.26.18.6.4.94.6.34.2.7.37 1.09.49Zm-.07-.6.53.16-.17-.23.33-.2-.53-.1.44-.44-.49.1.03.09c-.01.07-.08.12-.16.11L18.5 9.5a21.95 21.95 0 0 1 1.7.63c.03.02.05.04.06.07Zm-.18-.78-2.24-.25c-.06.03-.08.06-.06.08.06.1.32.2.43.25-.15.05-.21.12-.22.15.2.3.95.73 1.3.9l-.03.06c.18.1.37.2.56.28l-.02.26c-.25 0-.5-.08-.7-.23a1.3 1.3 0 0 1-.28-.27l-.15-.02c.13.46.8.7 1.12.75a53.4 53.4 0 0 0 0 2.54 5.3 5.3 0 0 0 .64-1.5c.08.4.21.78.4 1.15 0 .12.05.26.1.4v.01c.1.41.26.9.45 1.11-.08.02-.27.03-.35-.08.02.1.1.3.23.32a.3.3 0 0 1-.3.06l.12.19a.27.27 0 0 1-.19 0c-.06-.02.02.1.09.2l-.13.19c-.55.69-2.01 2.26-3.5 3.06-1.5.8-2.75 1.34-3.19 1.52-.24.05-.59.16-.92.32-.31.15-.62.35-.76.6h-.13l-.07.09a2.11 2.11 0 0 0-.06-.19l-.05-.1a.15.15 0 0 0-.13-.05.14.14 0 0 0-.08.05.43.43 0 0 0-.06.1l-.03.08a3.87 3.87 0 0 0-1.76-.97c-.81-.25-1.6-.58-2.36-.97-.84-.42-1.6-.88-1.94-1.19a67.35 67.35 0 0 1-2.13-1.94 3.8 3.8 0 0 1-.28-.35l.07-.19.09-.16-.23-.15c.1-.1.3-.3.23-.27a.79.79 0 0 1-.3 0c.13-.15.36-.42.21-.3a.52.52 0 0 1-.38.08c.3-.24.46-.97.53-1.52.1-.35.22-.58.28-.66l-.03-.02.1-.06.15 1.09.28-.01c.05-.95.15-1.9.31-2.84a4.52 4.52 0 0 1 .21-.7c.06-.1.1-.14.12-.15l.08-.05-.02-.09a12.8 12.8 0 0 1-.38-2.16 8.1 8.1 0 0 1 .15-2.55c.14-.24.32-.42.54-.5.22-.08.5-.07.86.1l.02.01a2.6 2.6 0 0 0 1.18 1.65c-.1 0-.2 0-.3-.03l.04.04a2.13 2.13 0 0 1-.1-.05 2.2 2.2 0 0 1-1.19-.88c.03 2.18 1.67 1.84 2.48 1.39l.09.02.14-.1-.27-.06c-.16-.04-.3-.1-.45-.16-.52-.28-.95-.7-1.2-1.22a3.93 3.93 0 0 1-.3-.66l.01-.02c.04-.2.1-.5.19-.8l.15-.36c.02.11.05.25.1.38a1.38 1.38 0 0 0 .15.34c.04.16.09.31.15.46.26.61.82 1.35 1.87 2.18h.01c.08.05.17.09.26.12l.05-.04a.12.12 0 0 0-.01-.18 5.77 5.77 0 0 1-1.98-2.32h.02v-.12a3 3 0 0 1 .14-.56c.07-.17.16-.33.28-.44a2 2 0 0 0 .3.38c.03.33.1.65.2.97a3.05 3.05 0 0 0 1.56 1.82.1.1 0 0 0 .1 0 .14.14 0 0 0 .08-.06.12.12 0 0 0-.05-.16c-.35-.17-.66-.4-.9-.7a2.6 2.6 0 0 1-.53-.98 4.38 4.38 0 0 1-.16-.7.8.8 0 0 0 .17.06c.16.35.37.76.63 1.14.39.56.88 1.09 1.47 1.24a.14.14 0 0 0 .15-.04.13.13 0 0 0 .02-.04.13.13 0 0 0-.1-.16c-.48-.13-.93-.58-1.3-1.14a7.12 7.12 0 0 1-.57-1h.02v-.1c0-.23.03-.6.1-.96.05-.24.14-.47.25-.69.09.27.3.6.66.83.43.29 1.07.46 1.98.32.67.06 1.58.21 2.36.53.9.36 1.6.91 1.68 1.73a.13.13 0 0 0 .06.09.14.14 0 0 0 .1.02c.03 0 .06-.02.09-.04a.13.13 0 0 0 .03-.1c-.1-.95-.92-1.56-1.85-1.94a8.67 8.67 0 0 0-2.41-.54 6.7 6.7 0 0 1-.62-.24l-.1-.05c.72.17 1.89.35 3.12.25a2.1 2.1 0 0 1 1 .13c.35.22.66.5.91.81.4.54.6 1.24.22 2.1l-.2.48.08.46.07.03c.24-.37.46-.76.68-1.15l.14-.35a2.6 2.6 0 0 0-.03-.7 2.23 2.23 0 0 0-.18-.72 1.72 1.72 0 0 0-.23-.44.14.14 0 0 0-.06-.04 2.42 2.42 0 0 0-.67-.6c.27.07.52.17.76.3.45.27.81.7.82 1.33v.14l.14-.05c.4-.15.82-.2 1.24-.14.17.02.33.1.44.24.1.13.16.32.12.62l-.02.16.35-.14-.27.4.13.43v.99c-.33 0-.68 0-.99-.06-.7-.1-1.31.1-1.54.23.05.21.23.47.43.7a2.05 2.05 0 0 0 1.58.34c.5-.08.98-.28 1.36-.5l-.02.02h.16c.03 0 .06 0 .09.02l-.36.45a3.24 3.24 0 0 1-2.48-.1.14.14 0 0 0-.07.04c.14.14.3.27.41.36.46.14 1.15.22 1.93.02l-.2.36Zm.25-1.45h-.38l.18-.17h-.01a6.87 6.87 0 0 0-2.12-.09c-.22.04-.38.08-.5.13l-.02.01a1.75 1.75 0 0 0 1.73.64c.24-.03.47-.1.7-.19-.49.06-.88.02-1.08-.04-.08-.02-.12-.1-.1-.16l.03-.04a.14.14 0 0 1 .09-.05h.05c.22.07.78.12 1.43-.04ZM16.94 5.2l-.02-.02a2 2 0 0 1-.06.76l.1-.23a2 2 0 0 0-.02-.5ZM4.4 7.16a2.1 2.1 0 0 1-1.2.4c-.23 0-.46 0-.66-.04l.11.08.28.05a3.3 3.3 0 0 0 1.3-.06.14.14 0 0 1 .1.05l.02.04a.13.13 0 0 1-.1.16 3.7 3.7 0 0 1-1.76 0l.37.3a.3.3 0 0 0 .08.02l.16.03c.45.03.91.04 1.37.02-.04-.35-.07-.7-.07-1.05Zm.1 1.33c-.19.27-.37.55-.53.84a1.1 1.1 0 0 0-.07.2c0 .18.1.51.14.66v.02l.01.16.45.33.07-.24a.84.84 0 0 1-.36-.52 1.62 1.62 0 0 1-.06-.57c0-.03.03-.06.05-.08a.14.14 0 0 1 .1-.03c.04 0 .07.02.1.04l.03.09c-.01.12 0 .3.04.49.03.12.1.24.2.34a.75.75 0 0 1 .13-.2c-.1-.37-.22-.91-.3-1.53Zm-.43 2.22.36.26a18 18 0 0 0-.22 1.62l-.04-.26-.59.38c.12-.18.22-.36.31-.55.08-.15.13-.31.15-.44.04-.3.04-.69.03-1.01Zm2.54-4.16c.34.24.77.45 1.2.43l.18.08c-.3.17-.65.23-.99.16-.34-.09-.68-.37-.87-1.08.14.14.3.28.48.4Z" clip-rule="evenodd"/><path fill="#FDFEFE" d="m8.07 13.63.01-.06c0-.09-.08-.16-.18-.16-.1 0-.17.07-.17.16a.15.15 0 0 0 .05.12.17.17 0 0 0 .13.04.18.18 0 0 0 .12-.05.16.16 0 0 0 .04-.05Zm7.5.1a.2.2 0 0 0 .12-.05.16.16 0 0 0 .05-.11c0-.09-.08-.16-.18-.16-.1 0-.18.07-.18.16 0 .02 0 .04.02.06 0 .02.02.04.04.06a.17.17 0 0 0 .13.04Zm-3.83 2.59c.16 0 .3-.11.3-.27 0-.15-.14-.27-.3-.27-.16 0-.3.12-.3.27 0 .08.04.15.1.2a.3.3 0 0 0 .2.07Z"/></g><defs><linearGradient id="b" x1="11.99" x2="11.99" y1="2.18" y2="21.78" gradientUnits="userSpaceOnUse"><stop offset=".46" stop-color="#FBB86A"/><stop offset="1" stop-color="#FBE9B6"/></linearGradient><clipPath id="a"><path fill="#fff" d="M0 0h24v24H0z"/></clipPath></defs></svg>