<svg width="24" height="24" viewBox="0 0 24 24" fill="none" xmlns="http://www.w3.org/2000/svg">
<g clip-path="url(#clip0_2819_2128)">
<circle cx="12" cy="12" r="12" fill="white"/>
<path d="M23 10.8652C22.465 5.66914 18.3309 1.535 13.1348 1V2.25645C17.731 2.76714 21.1356 6.36625 21.6301 10.8652H23Z" fill="black"/>
<path d="M10.1113 10.3949L10.8084 12.4538H9.23582L9.97348 10.3949H10.1113Z" fill="black"/>
<path fill-rule="evenodd" clip-rule="evenodd" d="M17.8202 17.8201H6.17982V6.17968H17.8202V17.8201ZM13.8725 13.5563H12.7215V13.9616H15.5586V13.5563H14.4237V10.3138H15.5586V9.90851H12.7215V10.3138H13.8725V13.5563ZM8.6927 13.9616L9.08179 12.8753H10.9543L11.3191 13.9616H11.9189L10.4598 9.90851H9.633L8.14959 13.9616H8.6927Z" fill="black"/>
<path d="M13.1348 23C18.3309 22.465 22.465 18.3309 23 13.1348H21.6301C21.1437 17.6418 17.731 21.2328 13.1348 21.7435V23Z" fill="black"/>
<path d="M10.8652 23C5.66913 22.465 1.535 18.3309 1 13.1348H2.36993C2.86441 17.6337 6.26898 21.2328 10.8652 21.7435V23Z" fill="black"/>
<path d="M1 10.8651C1.535 5.66914 5.66913 1.535 10.8651 1V2.25645C6.26898 2.76714 2.8563 6.35815 2.36993 10.8651H1Z" fill="black"/>
</g>
<defs>
<clipPath id="clip0_2819_2128">
<rect width="24" height="24" fill="white"/>
</clipPath>
</defs>
</svg>
