<svg xmlns="http://www.w3.org/2000/svg" width="24" height="24" fill="none" viewBox="0 0 24 24"><g clip-path="url(#a)"><path fill="#13B5EC" d="M12 24a12 12 0 1 0 0-24 12 12 0 0 0 0 24Z"/><path fill="#fff" fill-rule="evenodd" d="m12.99 9.55 2.9-1.7v3.39l-2.9-1.7Zm2.9 7.23-3.87 2.26-3.86-2.26v-3.94l3.86 2.26 3.86-2.26v3.94ZM8.15 7.86l2.9 1.69-2.9 1.69V7.86Zm4.35 2.5 2.9 1.68-2.9 1.69v-3.38Zm-.97 3.37-2.9-1.69 2.9-1.69v3.38Zm3.86-6.67-3.38 1.92-3.37-1.92 3.37-2.01 3.38 2Zm-8.2-.33v10.54L12.02 20l4.83-2.73V6.73L12.02 4 7.2 6.73Z" clip-rule="evenodd"/></g><defs><clipPath id="a"><path fill="#fff" d="M0 0h24v24H0z"/></clipPath></defs></svg>