<svg xmlns="http://www.w3.org/2000/svg" width="24" height="24" fill="none" viewBox="0 0 24 24"><g clip-path="url(#a)"><path fill="#627EEA" d="M12 24a12 12 0 1 0 0-24 12 12 0 0 0 0 24Z"/><path fill="#fff" fill-opacity=".6" d="M12 4v5.91l5 2.24L12 4Z"/><path fill="#fff" d="m12 4-5 8.15 5-2.24V4Z"/><path fill="#fff" fill-opacity=".6" d="M12 15.98V20l5-6.92-5 2.9Z"/><path fill="#fff" d="M12 20v-4.02l-5-2.9L12 20Z"/><path fill="#fff" fill-opacity=".2" d="m12 15.05 5-2.9-5-2.24v5.14Z"/><path fill="#fff" fill-opacity=".6" d="m7 12.15 5 2.9V9.9l-5 2.24Z"/></g><defs><clipPath id="a"><path fill="#fff" d="M0 0h24v24H0z"/></clipPath></defs></svg>