<svg xmlns="http://www.w3.org/2000/svg" width="24" height="24" fill="none" viewBox="0 0 24 24"><g clip-path="url(#a)"><path fill="#1BA27A" d="M24 12a12 12 0 1 1-24 0 12 12 0 0 1 24 0Z"/><path fill="#fff" fill-rule="evenodd" d="M6.53 6h11.31v2.73h-4.29v1.8c3.35.15 5.88.8 5.88 1.6 0 .78-2.54 1.44-5.88 1.58v5.76h-2.73v-5.76C7.5 13.57 5 12.91 5 12.12c0-.78 2.5-1.44 5.82-1.58V8.73H6.53V6Zm4.3 4.69c-2.89.12-5.04.63-5.04 1.22 0 .7 2.88 1.26 6.42 1.26 3.55 0 6.43-.56 6.43-1.26 0-.6-2.18-1.1-5.09-1.22v2.05h-2.73V10.7Z" clip-rule="evenodd"/></g><defs><clipPath id="a"><path fill="#fff" d="M0 0h24v24H0z"/></clipPath></defs></svg>