<svg xmlns="http://www.w3.org/2000/svg" width="24" height="24" fill="none" viewBox="0 0 24 24"><g clip-path="url(#a)"><path fill="#0B1217" d="M12 24a12 12 0 1 0 0-24 12 12 0 0 0 0 24Z"/><path fill="#fff" d="M17.3 6h2.17l-4.51 4.47a4.22 4.22 0 0 1-5.92 0L4.53 6H6.7l3.42 3.4a2.67 2.67 0 0 0 3.75 0L17.3 6ZM6.67 18.42H4.5l4.54-4.5a4.22 4.22 0 0 1 5.92 0l4.54 4.5h-2.17L13.88 15a2.67 2.67 0 0 0-3.75 0l-3.46 3.42Z"/></g><defs><clipPath id="a"><path fill="#fff" d="M0 0h24v24H0z"/></clipPath></defs></svg>