<svg xmlns="http://www.w3.org/2000/svg" width="24" height="24" fill="none" viewBox="0 0 24 24"><g clip-path="url(#a)"><path fill="#fff" d="M12 24a12 12 0 1 0 0-24 12 12 0 0 0 0 24Z"/><path fill="#E6007A" d="M12 6.2c2 0 3.6-.94 3.6-2.1C15.6 2.94 14 2 12 2s-3.6.94-3.6 2.1c0 1.16 1.6 2.1 3.6 2.1ZM12 22c2 0 3.6-.94 3.6-2.1 0-1.16-1.6-2.1-3.6-2.1s-3.6.94-3.6 2.1C8.4 21.06 10 22 12 22ZM6.97 9.1c1-1.73 1-3.6-.01-4.17-1-.58-2.62.35-3.62 2.07-1 1.72-.99 3.6.01 4.17 1 .58 2.63-.35 3.62-2.07ZM20.66 17c1-1.72.99-3.6-.01-4.17-1-.58-2.63.35-3.62 2.07-1 1.73-1 3.6.01 4.17 1 .58 2.62-.35 3.62-2.07Zm-13.7 2.07c1-.58 1.01-2.44.01-4.17-1-1.72-2.61-2.65-3.62-2.07-1 .58-1 2.45-.01 4.17 1 1.72 2.62 2.65 3.62 2.07Zm13.69-7.9c1-.58 1-2.44.01-4.17-1-1.72-2.62-2.65-3.62-2.07-1 .58-1.01 2.44-.01 4.17 1 1.72 2.61 2.65 3.62 2.07Z"/></g><defs><clipPath id="a"><path fill="#fff" d="M0 0h24v24H0z"/></clipPath></defs></svg>