<svg xmlns="http://www.w3.org/2000/svg" width="24" height="24" fill="none" viewBox="0 0 24 24">
  <g clip-path="url(#a)">
    <path fill="#F0B90B" d="M0 12C0 5.373 5.373 0 12 0s12 5.373 12 12-5.373 12-12 12S0 18.627 0 12Z"/>
    <path fill="#fff" d="M14.891 6.734a.28.28 0 0 1 .396 0l1.818 1.812a.278.278 0 0 1 0 .396L8.92 17.139a.28.28 0 0 1-.396 0l-1.818-1.811a.28.28 0 0 1 0-.396l8.185-8.197Zm3.313 3.28a.28.28 0 0 1 .396 0l1.818 1.81a.278.278 0 0 1 .06.306.28.28 0 0 1-.06.09l-8.184 8.197a.28.28 0 0 1-.396 0l-1.818-1.81a.28.28 0 0 1 0-.396l8.184-8.197ZM13.982 5.79a.277.277 0 0 0 .06-.305.278.278 0 0 0-.06-.091l-1.819-1.812a.28.28 0 0 0-.396 0L6.777 8.58a.28.28 0 0 0 0 .395l1.808 1.82a.28.28 0 0 0 .397 0l5-5.006ZM7.56 12.22a.28.28 0 0 0 0-.394l-1.81-1.82a.28.28 0 0 0-.396 0l-1.772 1.773a.28.28 0 0 0 0 .396l1.819 1.812c.109.11.286.11.395 0L7.56 12.22Z"/>
  </g>
  <defs>
    <clipPath id="a">
      <path fill="#fff" d="M0 0h24v24H0z"/>
    </clipPath>
  </defs>
</svg>
