<svg xmlns="http://www.w3.org/2000/svg" width="24" height="24" fill="none" viewBox="0 0 24 24">
  <g clip-path="url(#a)">
    <circle cx="12" cy="12" r="12" fill="#08C"/>
    <path fill="#fff" d="M19.012 9.202 12.66 19.316a.858.858 0 0 1-1.453-.004L4.98 9.197a1.791 1.791 0 0 1-.266-.942 1.856 1.856 0 0 1 1.882-1.826h10.817c1.033 0 1.873.814 1.873 1.821a1.8 1.8 0 0 1-.274.952ZM6.51 8.863l4.633 7.145V8.143H6.994c-.48 0-.694.317-.484.72Zm6.347 7.145 4.633-7.145c.214-.403-.004-.72-.484-.72h-4.149v7.864Z"/>
  </g>
  <defs>
    <clipPath id="a">
      <path fill="#fff" d="M0 0h24v24H0z"/>
    </clipPath>
  </defs>
</svg>
