<svg xmlns="http://www.w3.org/2000/svg" width="24" height="24" fill="none" viewBox="0 0 24 24"><g clip-path="url(#a)"><path fill="#F5AC37" d="M0 12a12 12 0 1 1 24 0 12 12 0 0 1-24 0Z"/><path fill="#FEFEFD" d="M13.19 12.85h4.56c.1 0 .14 0 .15-.13a8.7 8.7 0 0 0 0-1.4c0-.08-.05-.12-.15-.12H8.68c-.11 0-.14.04-.14.14v1.34c0 .17 0 .17.18.17h4.47Zm4.2-3.21a.15.15 0 0 0 0-.1 2.96 2.96 0 0 0-.27-.48 3.82 3.82 0 0 0-.56-.7 5.39 5.39 0 0 0-3.87-1.61H8.66c-.1 0-.12.05-.12.14v2.67c0 .1 0 .14.14.14h8.65s.08-.02.1-.06h-.04Zm0 4.77a1.76 1.76 0 0 0-.39 0H8.7c-.11 0-.15 0-.15.15v2.6c0 .12 0 .15.15.15h3.84a5.72 5.72 0 0 0 2.72-.65h.05c.9-.47 1.63-1.2 2.1-2.1 0 0 .05-.12-.01-.15ZM7.03 18.66v-4.15c0-.1 0-.1-.12-.1H5.28c-.09 0-.12 0-.12-.13v-1.42H6.9c.1 0 .13 0 .13-.13v-1.41c0-.09 0-.11-.12-.11H5.28c-.09 0-.12 0-.12-.12V9.77c0-.08 0-.1.12-.1h1.6c.12 0 .15 0 .15-.15V5.48c0-.12 0-.15.15-.15h5.63a7.33 7.33 0 0 1 3.56 1 6.62 6.62 0 0 1 2.12 2.02c.24.36.43.75.59 1.15.01.1.11.17.22.16h1.34c.17 0 .17 0 .18.16v1.23c0 .12-.04.15-.16.15h-1.04c-.1 0-.13 0-.13.14.05.45.05.91 0 1.37 0 .13 0 .14.15.14h1.18c.05.07 0 .14 0 .2v1.17c0 .13-.04.17-.15.17h-1.42a.19.19 0 0 0-.21.14 6 6 0 0 1-1.58 2.3 8.3 8.3 0 0 1-.8.64c-.3.17-.6.35-.9.5a8.11 8.11 0 0 1-3.53.7h-5.2Z"/></g><defs><clipPath id="a"><path fill="#fff" d="M0 0h24v24H0z"/></clipPath></defs></svg>