<svg xmlns="http://www.w3.org/2000/svg" width="24" height="24" fill="none" viewBox="0 0 24 24">
  <g clip-path="url(#a)">
    <circle cx="12" cy="12" r="12" fill="#FE0420"/>
    <path fill="#fff" fill-rule="evenodd" d="M4.731 15.438c.59.422 1.348.634 2.272.634 1.12 0 2.013-.253 2.68-.758.669-.513 1.139-1.286 1.41-2.319.164-.633.304-1.285.42-1.956a3.91 3.91 0 0 0 .059-.6c0-.527-.136-.98-.408-1.357a2.433 2.433 0 0 0-1.12-.86c-.473-.195-1.009-.293-1.607-.293-2.199 0-3.562 1.036-4.09 3.11-.187.761-.33 1.414-.432 1.956a3.95 3.95 0 0 0-.058.611c0 .792.292 1.402.874 1.832Zm4.207-2.51c-.223.866-.839 1.43-1.771 1.43-.923 0-1.239-.625-1.072-1.43.14-.732.28-1.35.42-1.855.24-.936.805-1.43 1.77-1.43.919 0 1.22.615 1.06 1.43a26.83 26.83 0 0 1-.407 1.854Zm3.531 3.062c.045.054.11.082.193.082h1.541a.34.34 0 0 0 .216-.082.334.334 0 0 0 .124-.21l.487-2.28h1.57c.99 0 1.764-.48 2.331-.907.574-.426.956-1.085 1.145-1.977a2.86 2.86 0 0 0 .068-.605c0-.675-.257-1.19-.77-1.547-.507-.357-1.18-.535-2.019-.535H14.34a.34.34 0 0 0-.215.081.334.334 0 0 0-.125.21l-1.564 7.56a.284.284 0 0 0 .034.21Zm5.509-5.397c-.141.622-.684 1.193-1.322 1.193h-1.304l.45-2.143h1.36c.463 0 .85.091.85.6 0 .101-.011.218-.034.35Z" clip-rule="evenodd"/>
  </g>
  <defs>
    <clipPath id="a">
      <path fill="#fff" d="M0 0h24v24H0z"/>
    </clipPath>
  </defs>
</svg>
