<svg xmlns="http://www.w3.org/2000/svg" width="24" height="24" fill="none" viewBox="0 0 24 24"><g clip-path="url(#a)"><path fill="#F3BA2F" d="M12 24a12 12 0 1 0 0-24 12 12 0 0 0 0 24Z"/><path fill="#fff" d="m8.5 10.56 3.5-3.5 3.5 3.5 2.03-2.03L12 3 6.47 8.53l2.03 2.03ZM3 12l2.03-2.03L7.07 12l-2.04 2.03L3 12Zm5.5 1.44 3.5 3.5 3.5-3.5 2.03 2.03L12 21l-5.53-5.53 2.03-2.03ZM16.93 12l2.04-2.03L21 12l-2.03 2.03L16.93 12Z"/><path fill="#fff" d="M14.06 12 12 9.93 9.94 12 12 14.06 14.06 12"/></g><defs><clipPath id="a"><path fill="#fff" d="M0 0h24v24H0z"/></clipPath></defs></svg>