<svg xmlns="http://www.w3.org/2000/svg" width="24" height="24" fill="none" viewBox="0 0 24 24"><g clip-path="url(#a)"><path fill="#fff" d="M0 12a12 12 0 1 0 24 0 12 12 0 0 0-24 0Z"/><path fill="url(#b)" d="M5.92 5.14a.6.6 0 0 1 .42-.17H20.7c.27 0 .4.31.21.5L18.08 8.3a.63.63 0 0 1-.42.17H3.3a.3.3 0 0 1-.21-.5l2.83-2.83Z"/><path fill="url(#c)" d="M5.92 15.7c.11-.1.26-.17.42-.17H20.7c.27 0 .4.32.21.5l-2.83 2.83a.63.63 0 0 1-.42.17H3.3a.3.3 0 0 1-.21-.5l2.83-2.83Z"/><path fill="url(#d)" d="M17.66 10.22c.16 0 .3.06.42.17l2.83 2.83a.3.3 0 0 1-.2.5H6.33a.59.59 0 0 1-.42-.17L3.1 10.72a.3.3 0 0 1 .2-.5h14.37Z"/></g><defs><linearGradient id="b" x1="17.15" x2="7.25" y1="2.14" y2="21.15" gradientUnits="userSpaceOnUse"><stop stop-color="#00FFA3"/><stop offset="1" stop-color="#DC1FFF"/></linearGradient><linearGradient id="c" x1="17.15" x2="7.25" y1="2.14" y2="21.15" gradientUnits="userSpaceOnUse"><stop stop-color="#00FFA3"/><stop offset="1" stop-color="#DC1FFF"/></linearGradient><linearGradient id="d" x1="17.15" x2="7.25" y1="2.14" y2="21.15" gradientUnits="userSpaceOnUse"><stop stop-color="#00FFA3"/><stop offset="1" stop-color="#DC1FFF"/></linearGradient><clipPath id="a"><path fill="#fff" d="M0 0h24v24H0z"/></clipPath></defs></svg>