<svg xmlns="http://www.w3.org/2000/svg" width="24" height="24" fill="none" viewBox="0 0 24 24"><g clip-path="url(#a)"><path fill="#F00500" d="M11.96 0a12 12 0 1 0 .07 0h-.06Z"/><path fill="#FFA409" d="m22.33 14.26-.03-.51a10.76 10.76 0 0 0-1.5-4.66l-.01-.03c.11-.34.59-1.78.96-3.43.52-2.23.84-4.84-.15-5.62 0 0-1.72-.13-4.03 2.1-.62.62-1.2 1.29-1.7 2l-.16-.05a11.8 11.8 0 0 0-4.6-.55c-1.07.07-1.9.23-2.83.56l-.1.03a15.1 15.1 0 0 0-1.76-1.98C4.02-.13 2.23 0 2.23 0c-1.05.81-.7 3.54-.15 5.85.36 1.52.8 2.87.97 3.35a13.29 13.29 0 0 0-1.5 5.3 6.5 6.5 0 0 1 5.68 1.84s1.34-3.47 4.93-3.47 4.35 3.47 4.35 3.47a8.04 8.04 0 0 1 5.84-1.78c0-.08 0-.19-.02-.3ZM3.76 7.81s-1.4-3.46-1.04-5.43c.06-.34.17-.63.34-.85 0 0 1.59.15 4.15 2.96 0 0-.49.24-1.14.73a8.93 8.93 0 0 0-2.31 2.59Zm5.93 5.13c-.02.05-.13.1-.26.11-.13.02-.52.01-.74-.01a7.82 7.82 0 0 1-2.24-.64c-.35-.17-.6-.34-.78-.52l-.1-.1-.01-.15c-.02-.24-.02-.62.01-.76a1 1 0 0 1 .12-.33c.03-.03.03-.03.16-.03.17 0 .3.02.53.1.46.13 1.14.47 1.98.97.69.4.94.6 1.14.88.14.17.23.4.2.48Zm8.81-1.22c0 .06-.18.24-.36.37a6.3 6.3 0 0 1-2.38.88c-.53.1-1.07.11-1.23.04-.1-.06-.12-.1-.08-.23.08-.28.33-.58.73-.86.2-.15 1.02-.64 1.4-.85a4.99 4.99 0 0 1 1.48-.59.85.85 0 0 1 .28 0c.07.03.15.22.18.46.01.12 0 .68-.02.78Zm-.62-6.5c-.63-.5-1.1-.73-1.1-.73 2.47-2.81 4-2.97 4-2.97a2 2 0 0 1 .34.85c.34 1.98-1 5.44-1 5.44a8.83 8.83 0 0 0-2.24-2.59Z"/><path fill="#fff" d="M22.36 14.64v-.08c-.9-.1-3.46-.16-5.84 1.79 0 0-.77-3.48-4.36-3.48-3.59 0-4.92 3.48-4.92 3.48a6.51 6.51 0 0 0-5.68-1.85v.07c-.03.54-.02.8.07 1.13.28 1.05 1.15 2.21 2.5 3.35 2.22 1.87 5.23 3.21 7.5 3.37 2.38.16 5.88-1.22 8.22-3.22.36-.32.7-.66 1.03-1.02a5.6 5.6 0 0 0 .62-.83c.02 0 .02-.01.02-.02v-.01l.02-.02.01-.02.02-.01a5.06 5.06 0 0 0 .77-1.96c.02-.2.04-.58.02-.67Zm-6.03-4.91s-1.2.07-1.05-.85c.15-.93 1.09-1.04 1.35-1 .26.03 1.31.4 1.12 1.18-.18.78-.45.63-.6.67-.15.03-.82 0-.82 0Zm-8.83 0s-1.2.07-1.04-.85c.15-.93 1.08-1.04 1.34-1 .27.03 1.31.4 1.13 1.18-.2.78-.45.63-.6.67-.15.03-.83 0-.83 0Z"/><path fill="#000" d="M18.5 11.72c0 .06-.18.24-.36.37a6.3 6.3 0 0 1-2.38.88c-.53.1-1.07.11-1.23.04-.1-.06-.12-.1-.08-.23.08-.28.33-.58.73-.87.2-.14 1.02-.63 1.4-.84a4.99 4.99 0 0 1 1.48-.59.85.85 0 0 1 .28 0c.07.03.15.22.18.46.01.12 0 .68-.02.78Zm-8.8 1.22c-.03.05-.14.1-.27.11-.13.02-.52.01-.74-.01a7.82 7.82 0 0 1-2.24-.64c-.35-.17-.6-.34-.78-.52l-.1-.1-.01-.15c-.02-.24-.02-.62.01-.76a1 1 0 0 1 .12-.33c.03-.03.03-.03.16-.03.17 0 .3.02.53.1.46.13 1.14.47 1.98.97.69.4.94.6 1.14.88.14.17.23.4.2.48Zm5.29 5.15a8.94 8.94 0 0 1-.2.79h-.24l-.17.39-.18.43-.02.05-.16-.25v-1.02h-.03a10.3 10.3 0 0 1-3.42.01v.54l.02.52-.06.1-.07.1a2.48 2.48 0 0 1-.34-.78l-.03-.1h-.12l-.11.01-.03-.14a3.87 3.87 0 0 1-.04-.25l-.02-.12-.1-.08a3.4 3.4 0 0 0-.12-.1l-.02-.07v-.04h.93l.03.1.16.01.63.02h.47l.12-.18.12-.18h.16v-.77l-.21-.09c-.67-.29-1.05-.62-1.2-1.01-.03-.09-.03-.12-.04-.49 0-.36 0-.4.02-.48.06-.18.2-.33.39-.37.06-.02.23-.02 1.11-.02h1.04l.12.06c.14.06.2.11.28.22.1.11.12.2.12.43 0 .32-.03.6-.06.71-.05.15-.12.3-.22.43a2 2 0 0 1-.83.58l-.1.03.01.78.17.01.11.17.1.16h.51l.54.01c.04 0 .05 0 .08-.06l.05-.06h.43c.32-.02.42-.01.42 0Z"/><path fill="#FF9300" d="M21.12 2.37c-.3-.04-1.67-.04-3.24 2.85-.63-.5-1.1-.73-1.1-.73 2.47-2.81 4-2.97 4-2.97.17.23.28.52.34.85ZM7.2 4.49s-.48.23-1.13.73C4.43 2.32 3.01 2.33 2.7 2.37c.06-.33.17-.62.35-.85 0 0 1.59.16 4.15 2.97Z"/><path fill="#FF8300" d="M20.12 7.8a8.8 8.8 0 0 0-2.24-2.58c1.57-2.9 2.94-2.89 3.24-2.85.35 1.98-1 5.44-1 5.44ZM6.07 5.22a8.9 8.9 0 0 0-2.31 2.59s-1.4-3.46-1.04-5.44c.3-.04 1.73-.04 3.35 2.85Z"/></g><defs><clipPath id="a"><path fill="#fff" d="M0 0h24v24H0z"/></clipPath></defs></svg>