<svg xmlns="http://www.w3.org/2000/svg" width="24" height="24" fill="none" viewBox="0 0 24 24"><g clip-path="url(#a)"><path fill="#fff" d="M0 12a12 12 0 1 1 24 0 12 12 0 0 1-24 0Z"/><path fill="#043013" fill-rule="evenodd" d="m9.33 4.7-.5-2a4.33 4.33 0 0 1 2.68-.95c1.26.02 2.2.41 2.51.6l-.26 2h.05c1.4.48 6.67 4.82 6.67 9.9 0 5.07-4.7 7.54-8.74 7.5-4.04-.04-8.44-2.52-8.22-8.02.16-4.06 3.67-7.5 5.81-9.03Z" clip-rule="evenodd"/><path fill="#55D290" d="M4.13 13.68C4.29 9.6 8.1 6.2 10 5h3.68c1.3.44 6.2 4.45 6.2 9.15s-4.37 6.98-8.12 6.94c-3.75-.04-7.84-2.33-7.63-7.42Z"/><path fill="#FBB7CF" d="M5.44 14.53a5.73 5.73 0 0 1 .94-3.36l10.96-.38a8.4 8.4 0 0 1 1.14 3.73c.02 1.9-2.25 5.6-6.66 5.5-4.41-.1-6.36-3.36-6.38-5.5Z"/><path fill="#FEDEEB" d="M12.03 11.75c3 0 5.44-.42 5.44-.93s-2.43-.93-5.44-.93c-3 0-5.43.42-5.43.93s2.43.93 5.43.93Z"/><path fill="#FD93B7" d="M9.55 17.99c-.3-1.49 1.7-3.23 2.74-3.91 1.2-.79 4.41-1.45 5.2-.23.99 1.52-.94 3.63-2.35 4.58-1.42.95-5.23 1.42-5.59-.44Z"/><path fill="#FFF8FD" d="M7.05 8.95c.4-.64 1.08-1.47 1.82-1.44.73.03.57 1.2.4 1.77-.21.57-.96 1.79-2.22 2.08-1.27.28-.42-1.64 0-2.41Zm8.97 8.74c.3-.24.98-.66 1.33-.46.35.2-.06.8-.34 1.14-.25.25-.94.78-1.35.38-.4-.4.07-.87.36-1.06Z"/><path fill="#CFE7E2" fill-opacity=".8" d="m5.08 15.3-.56-1.94.7.85 2.06-1.8 3.23 2.38 3.1-2.71 3.18 1.76 1.6-2.2.9 1.62-.9-1.03-1.44 2.46L13.62 13l-3.11 2.95-3.33-2.6-2.1 1.94Z"/><path fill="#043013" d="M10.41 5.74c-.78-.38-.93-.83-1-1.02 1.42-.1 4.23-.23 4.2 0-.03.24-.64.78-.94 1.02H10.4Z"/><path fill="url(#b)" d="M11.46 6.28c-1.68-.05-2-2.09-1.96-3.1.2-.32.85-.67 1.96-.74.88-.05 1.6.47 1.85.74.08 1.06-.18 3.15-1.85 3.1Z"/><path fill="#8FD366" d="M10.3 6.81a2.06 2.06 0 0 1-.56-1.35c.32.34 1.17 1 1.97.9.81-.1 1.6-.71 1.9-1.01v.52c-.17 1.16-1.34 1.43-1.9 1.43-.3 0-1-.1-1.42-.49Z"/></g><defs><linearGradient id="b" x1="11.41" x2="11.41" y1="2.87" y2="6.28" gradientUnits="userSpaceOnUse"><stop stop-color="#F8C74B"/><stop offset=".34" stop-color="#F38C34"/></linearGradient><clipPath id="a"><path fill="#fff" d="M0 0h24v24H0z"/></clipPath></defs></svg>