<svg xmlns="http://www.w3.org/2000/svg" width="24" height="24" fill="none" viewBox="0 0 24 24"><g clip-path="url(#a)"><path fill="#fff" d="M0 12a12 12 0 1 0 24 0 12 12 0 0 0-24 0Z"/><path fill="#EFE812" d="M7.21 4.47C7.62 4 8 3.6 8.36 3.27c-6.08-.2-4.3 4.2-6.3 8.66-2.28 5.14.27 7.1 4.07 7.71a8.27 8.27 0 0 1-1.29-2.1C2.4 14.44 3.4 8.79 7.21 4.47Z"/><path fill="#EDE70A" d="M21.84 9.94a17.36 17.36 0 0 1-3.07 5.14 14.72 14.72 0 0 1-3.73 3.23 10.07 10.07 0 0 1-5.5 1.57c-1.14 0-2.28-.07-3.4-.24a6.9 6.9 0 0 0 2.27 1.78c5.5 2.66 5.84-2.28 11.66-4.78 3.26-1.41 3.27-4.16 1.76-6.7m-6.79-5.13c.8.14 1.56.41 2.27.8a12.65 12.65 0 0 1 4.53 4.33c.99-2.79.52-4.98-1.64-5.37-2.38-.44-4.24-.58-6.03-1.83-2.2-1.53-4.13-1.03-5.8.53l.36.01c2.32.14 4.54.6 6.3 1.53"/><path fill="#DEC21C" d="M7.21 4.47c-3.82 4.32-4.82 9.97-2.35 13.07a9.4 9.4 0 0 1 .53-8.4 9.51 9.51 0 0 1 9.65-4.33 15.66 15.66 0 0 0-6.3-1.52l-.37-.02c-.37.34-.75.73-1.16 1.2Z"/><path fill="#E5CB22" d="M17.3 5.61a7.26 7.26 0 0 0-2.26-.8c2.33 1.23 3.87 3.3 3.87 6.59a8.26 8.26 0 0 1-3.87 6.91 14.67 14.67 0 0 0 3.73-3.23 17.36 17.36 0 0 0 3.07-5.14 12.65 12.65 0 0 0-4.53-4.33Z"/><path fill="#CCA727" d="M15.04 4.81a9.52 9.52 0 0 0-9.65 4.31 9.4 9.4 0 0 0-.53 8.42c.32.76.75 1.47 1.28 2.1 1.12.17 2.26.25 3.4.24 1.94.02 3.85-.52 5.5-1.57a8.26 8.26 0 0 0 3.87-6.91c0-3.29-1.54-5.36-3.87-6.59Zm-.39 11.94a5.68 5.68 0 0 1-7.83-1.68c-1.7-2.62-.86-6 1.69-7.8 2.85-2.03 6.5-1.23 7.83 1.68 1.3 2.84.94 6.12-1.69 7.8Z"/></g><defs><clipPath id="a"><path fill="#fff" d="M0 0h24v24H0z"/></clipPath></defs></svg>