<svg width="24" height="24" viewBox="0 0 24 24" fill="none" xmlns="http://www.w3.org/2000/svg">
<g clip-path="url(#clip0_2819_2127)">
<circle cx="12" cy="12" r="12" fill="black"/>
<path fill-rule="evenodd" clip-rule="evenodd" d="M6 5.57129H10.8129C11.5071 5.88415 12 6.50129 12 7.38415C12 7.667 11.9014 8.29272 11.5071 8.54129C11.67 8.71272 12 9.18843 12 9.72843C11.9819 10.1129 11.8626 10.4858 11.6542 10.8094C11.4457 11.133 11.1555 11.3959 10.8129 11.5713H6V5.57129ZM10.0714 6.857H7.28571V8.14272H10.0714C10.2419 8.14272 10.4054 8.07499 10.526 7.95443C10.6466 7.83387 10.7143 7.67036 10.7143 7.49986C10.7143 7.32936 10.6466 7.16585 10.526 7.04529C10.4054 6.92473 10.2419 6.857 10.0714 6.857ZM7.28571 8.99986H10.0714C10.2419 8.99986 10.4054 9.06759 10.526 9.18815C10.6466 9.30871 10.7143 9.47222 10.7143 9.64272C10.7143 9.81321 10.6466 9.97673 10.526 10.0973C10.4054 10.2178 10.2419 10.2856 10.0714 10.2856H7.28571V8.99986Z" fill="#FD6E26"/>
<path d="M12.8571 5.57129V10.2684L14.0957 11.5713H18.4286V10.2856H14.6571L14.1429 9.70272V5.57129H12.8571Z" fill="#FD6E26"/>
<path d="M6 12.4284V17.0956L7.23857 18.4284H10.8171L12 17.0956V12.4284H10.7143V16.5684L10.2171 17.1427H7.84286L7.28571 16.5684V12.4284H6Z" fill="#FD6E26"/>
<path fill-rule="evenodd" clip-rule="evenodd" d="M17.3357 12.4284H12.8571V18.4284H14.1429V15.857H16.4486C16.8686 15.9213 17.1171 16.4484 17.1429 16.6499V18.4284H18.4286V16.5127C18.4286 15.9341 18.03 15.5313 17.8286 15.4027L17.8586 15.3727C18.0514 15.2013 18.4286 14.8584 18.4286 14.0956C18.4286 13.4527 17.8286 12.6213 17.3357 12.4284ZM14.1429 13.2856H16.2857C16.513 13.2856 16.7311 13.3759 16.8918 13.5366C17.0526 13.6974 17.1429 13.9154 17.1429 14.1427C17.1429 14.37 17.0526 14.5881 16.8918 14.7488C16.7311 14.9096 16.513 14.9999 16.2857 14.9999H14.1429V13.2856Z" fill="#FD6E26"/>
</g>
<defs>
<clipPath id="clip0_2819_2127">
<rect width="24" height="24" fill="white"/>
</clipPath>
</defs>
</svg>
