<svg xmlns="http://www.w3.org/2000/svg" width="24" height="24" fill="none" viewBox="0 0 24 24"><g clip-path="url(#a)"><path fill="#0C36A6" d="M12 24a12 12 0 1 0 0-24 12 12 0 0 0 0 24Z"/><path fill="#fff" d="M11.78 3.65c.4-.2.87.27.66.66-.12.32-.58.4-.81.16-.25-.23-.17-.7.15-.82Zm-4.22.45c.24-.1.54.12.52.38.02.29-.32.5-.57.36-.32-.13-.28-.65.05-.74Zm8.64.75c-.37-.05-.43-.63-.07-.75.28-.14.53.12.57.38-.06.23-.24.43-.5.37ZM8.52 5.9c.4-.25.97.12.9.59-.02.46-.64.73-.99.42-.33-.25-.28-.82.09-1.01Zm6.08.27c.18-.46.9-.47 1.1-.03.2.35-.04.78-.4.9-.47.08-.92-.43-.7-.87ZM11.27 7c0-.4.36-.69.73-.71.25.05.52.15.63.4.2.35.02.82-.34.98-.16.1-.36.06-.54.05-.27-.14-.5-.4-.48-.72ZM5 7.58c.36-.22.85.19.71.58-.07.35-.53.49-.8.27-.28-.2-.23-.7.09-.85Zm13.47 0c.31-.24.82.04.78.43.02.35-.42.62-.72.44-.34-.15-.38-.67-.06-.87Zm-5.43.71a1.22 1.22 0 0 1 .99 2.21 1.22 1.22 0 1 1-.99-2.21Zm-3 .06A1.22 1.22 0 1 1 9.48 10a1.23 1.23 0 0 1 .58-1.65ZM7.06 9.38c.05-.37.39-.6.73-.63a.8.8 0 0 1 .72.71c-.03.38-.32.74-.71.74-.44.04-.82-.4-.74-.82Zm8.84-.55c.45-.26 1.07.12 1.05.63.03.55-.65.93-1.1.61-.46-.26-.43-1.01.05-1.24Zm-7.06 1.92a1.22 1.22 0 1 1-.78 1.7c-.35-.66.07-1.53.78-1.7Zm5.67 0c.5-.15 1.1.05 1.38.51a1.22 1.22 0 1 1-2.1 1.23c-.37-.64 0-1.55.72-1.74Zm-9.04.6c.46-.17.96.33.77.78-.1.4-.68.56-.98.26-.35-.29-.22-.92.21-1.04Zm12.26.65a.7.7 0 0 1 .64-.73c.31.05.61.3.59.64.03.45-.51.75-.89.54-.18-.1-.27-.27-.34-.45Zm-14.48-.43c.27-.12.6.12.55.42-.02.34-.52.47-.7.19-.17-.2-.07-.5.15-.61Zm17.15 0c.2-.14.5-.05.57.18.13.24-.1.58-.38.54-.38.03-.51-.56-.2-.73ZM10.3 13.2c.71-.18 1.48.42 1.49 1.15.04.75-.71 1.4-1.45 1.24a1.22 1.22 0 0 1-.04-2.39Zm2.83 0c.73-.2 1.52.4 1.5 1.16.05.73-.69 1.37-1.4 1.23a1.22 1.22 0 0 1-.1-2.39Zm-5.46.46c.5-.09.97.47.77.95-.15.5-.9.65-1.22.23-.38-.4-.1-1.13.45-1.18Zm8.3.02c.46-.19 1 .2.97.69.02.53-.66.9-1.1.59-.5-.28-.4-1.1.14-1.28Zm2.33 2.33c-.17-.33.14-.76.5-.7.19 0 .32.14.43.26.02.2.06.42-.1.57-.21.28-.71.2-.83-.13ZM5 15.41c.34-.23.83.1.76.5-.04.35-.49.55-.78.35-.31-.18-.3-.7.02-.86Zm6.71.73c.45-.2 1.01.19.97.68.03.54-.67.91-1.1.59-.48-.28-.4-1.1.13-1.27Zm-3.1.72c.37-.2.88.15.85.57a.6.6 0 0 1-.67.6c-.29-.01-.47-.27-.57-.51 0-.27.12-.56.38-.66Zm6.29 0c.39-.23.94.11.9.57.01.47-.61.77-.98.46-.35-.24-.3-.83.08-1.02Zm1.1 2.71c-.18-.26.02-.58.3-.63.23.04.47.21.42.47-.03.36-.55.47-.73.16Zm-8.7-.23c.07-.2.24-.4.49-.36.35.03.46.57.15.73-.28.2-.61-.07-.63-.37Zm4.2.24c.06-.3.46-.45.72-.29.18.07.23.27.27.43a8.3 8.3 0 0 0-.06.26c-.11.13-.25.25-.43.25-.33.04-.63-.34-.5-.65Z"/></g><defs><clipPath id="a"><path fill="#fff" d="M0 0h24v24H0z"/></clipPath></defs></svg>