<svg xmlns="http://www.w3.org/2000/svg" width="24" height="24" fill="none" viewBox="0 0 24 24"><g clip-path="url(#a)"><path fill="#F7931A" d="M23.62 14.92A12 12 0 1 1 .34 9.12a12 12 0 0 1 23.28 5.8Z"/><path fill="#fff" d="M17.3 10.29c.23-1.6-.99-2.46-2.65-3.03l.54-2.16-1.32-.33-.52 2.1-1.06-.24.53-2.12-1.31-.33-.54 2.16-.84-.2-1.82-.45-.35 1.4s.98.23.96.24c.53.13.63.49.61.77l-.61 2.46.13.04-.13-.03-.87 3.45c-.06.16-.23.4-.6.31.01.02-.96-.23-.96-.23l-.65 1.5 1.71.43.94.24-.54 2.19 1.31.33.54-2.17c.36.1.71.2 1.05.28l-.54 2.15 1.32.33.55-2.19c2.24.43 3.93.26 4.64-1.77.57-1.64-.03-2.58-1.2-3.2.85-.2 1.5-.76 1.67-1.93Zm-3.02 4.22c-.4 1.63-3.16.75-4.05.53l.72-2.9c.9.22 3.76.66 3.33 2.37Zm.41-4.24c-.37 1.48-2.66.73-3.4.54l.65-2.63c.74.19 3.14.54 2.75 2.09Z"/></g><defs><clipPath id="a"><path fill="#fff" d="M0 0h24v24H0z"/></clipPath></defs></svg>