<svg xmlns="http://www.w3.org/2000/svg" width="128" height="24" fill="none" viewBox="0 0 128 24">
  <path fill="url(#a)" d="m43.68 9.54-5.285 5.285a1 1 0 0 1-1.417 0L31.694 9.54a1 1 0 0 1 0-1.417l5.284-5.285a1 1 0 0 1 1.417 0l5.284 5.285a1 1 0 0 1 0 1.417ZM23.05 2.773a1 1 0 0 0-1.417 0L16.35 8.057a1 1 0 0 1-1.417 0L9.661 2.786a1 1 0 0 0-1.417 0L2.96 8.07a1 1 0 0 0 0 1.417l12.974 12.975a1 1 0 0 0 1.417 0l2.201-2.201 3.093-3.08a1.005 1.005 0 0 1 1.416 0l5.285 5.285a1 1 0 0 0 1.417 0l5.284-5.284a1 1 0 0 0 0-1.417L23.05 2.772Z"/>
  <path fill="#02275A" fill-rule="evenodd" d="M73.906 14.165H75.6a.2.2 0 0 0 .183-.28l-1.595-3.53a.201.201 0 0 0-.365 0l-3.779 8.373a.5.5 0 0 1-.454.294h-1.96a.5.5 0 0 1-.455-.708l5.329-11.808a.5.5 0 0 1 .454-.294h2.09a.5.5 0 0 1 .454.294l5.33 11.808a.502.502 0 0 1-.455.708h-1.96a.495.495 0 0 1-.455-.29c-.183-.396-.508-1.1-.695-1.497a.491.491 0 0 0-.455-.285H73.1a.5.5 0 0 1-.455-.708l.802-1.778a.503.503 0 0 1 .46-.299Zm-6.964-7.654-3.36 7.458c-.075.165-.316.156-.374-.017L60.762 6.56a.499.499 0 0 0-.477-.343h-1.973a.497.497 0 0 0-.477.352l-2.3 7.378a.2.2 0 0 1-.373.027l-3.543-7.472a.503.503 0 0 0-.454-.285h-1.916a.5.5 0 0 0-.455.713l5.49 11.807c.08.178.258.29.454.29h1.992a.501.501 0 0 0 .481-.361L59.158 12c.054-.192.325-.192.383-.005l2.099 6.68a.5.5 0 0 0 .477.351h1.991a.503.503 0 0 0 .46-.298l5.26-11.808a.5.5 0 0 0-.459-.704h-1.982a.496.496 0 0 0-.446.294Zm18.277-.277H83.44a.498.498 0 0 0-.499.5v11.789c0 .276.223.499.5.499h6.531a.498.498 0 0 0 .499-.499v-1.778a.498.498 0 0 0-.499-.499h-4.055a.2.2 0 0 1-.2-.2V6.733a.498.498 0 0 0-.5-.499Zm7.61 0h1.778c.276 0 .499.223.499.5v9.312a.2.2 0 0 0 .2.2h4.055c.276 0 .499.223.499.5v1.777a.498.498 0 0 1-.5.499h-6.53a.498.498 0 0 1-.499-.499V6.733c0-.276.223-.499.499-.499Zm9.383 12.788h7.847a.498.498 0 0 0 .499-.499v-1.778a.498.498 0 0 0-.499-.499h-5.365a.2.2 0 0 1-.2-.2v-1.832a.2.2 0 0 1 .2-.2h5.365a.498.498 0 0 0 .499-.5v-1.777a.498.498 0 0 0-.499-.499h-5.365a.2.2 0 0 1-.2-.2V9.206a.2.2 0 0 1 .2-.2h5.365a.498.498 0 0 0 .499-.5V6.73a.498.498 0 0 0-.499-.499h-7.847a.498.498 0 0 0-.499.499v11.807c0 .263.223.486.499.486Zm14.918-6.523a.202.202 0 0 1 0 .24l-4.166 5.481a.498.498 0 0 0 .396.802h2.224a.492.492 0 0 0 .396-.196l8.974-11.807a.498.498 0 0 0-.397-.802h-2.223a.495.495 0 0 0-.397.196l-2.816 3.702a.2.2 0 0 1-.32 0l-2.816-3.702a.495.495 0 0 0-.397-.196h-2.223a.5.5 0 0 0-.397.802l4.162 5.48Zm7.828 5.721-3.239-4.264a.196.196 0 0 0-.316 0l-1.489 1.965a.202.202 0 0 0 0 .24l2.028 2.665c.093.125.24.196.396.196h2.224a.5.5 0 0 0 .396-.802Z" clip-rule="evenodd"/>
  <defs>
    <linearGradient id="a" x1="43.973" x2="2.668" y1="12.619" y2="12.619" gradientUnits="userSpaceOnUse">
      <stop offset=".078" stop-color="#109AFA"/>
      <stop offset=".369" stop-color="#0A67B4"/>
      <stop offset=".659" stop-color="#043973"/>
      <stop offset=".796" stop-color="#02275A"/>
    </linearGradient>
  </defs>
</svg>
